<svg width="80" height="80" viewBox="0 0 80 80" xmlns="http://www.w3.org/2000/svg">
  <style>
    .primary { fill: #3498db; }
    .secondary { fill: #2c3e50; }
    .accent { fill: #ecf0f1; }
  </style>
  <g>
    <!-- Chat Bubbles -->
    <path class="secondary" d="M60 25 C65 25 70 30 70 35 C70 40 65 45 60 45 L55 45 L55 50 L50 45 L40 45 C35 45 30 40 30 35 C30 30 35 25 40 25 Z" />
    <path class="primary" d="M20 35 C15 35 10 40 10 45 C10 50 15 55 20 55 L25 55 L25 60 L30 55 L40 55 C45 55 50 50 50 45 C50 40 45 35 40 35 Z" />
    
    <!-- Message Dots -->
    <circle cx="20" cy="45" r="2" class="accent" />
    <circle cx="30" cy="45" r="2" class="accent" />
    <circle cx="40" cy="45" r="2" class="accent" />
    
    <circle cx="50" cy="35" r="2" class="accent" />
    <circle cx="60" cy="35" r="2" class="accent" />
  </g>
</svg>
